<?xml version="1.0" encoding="utf-8"?>
<!-- Generator: Adobe Illustrator 23.0.4, SVG Export Plug-In . SVG Version: 6.00 Build 0)  -->
<svg version="1.1" id="Layer_1" xmlns="http://www.w3.org/2000/svg" xmlns:xlink="http://www.w3.org/1999/xlink" x="0px" y="0px"
	 viewBox="0 0 6448.7 2986.1" style="enable-background:new 0 0 6448.7 2986.1;" xml:space="preserve">
<style type="text/css">
	.st0{fill:#D6982D;}
</style>
<g>
	<path class="st0" d="M3276.8,2845.2l1289.5-957.7L4146.9,1576c-19.3-14.3-23.4-41.6-9.1-60.9c2.8-3.8,6.1-7,9.7-9.5l427.7-317.6
		L3276.8,223.6l-1298.5,964.4l427.7,317.6c3.6,2.6,6.9,5.8,9.7,9.5c14.3,19.3,10.3,46.6-9.1,60.9l-419.4,311.5L3276.8,2845.2z
		 M2982,122.3l-52.1-70.2L3000,0l52.1,70.2L2982,122.3z M2940.4,2915.7l-52.1,70.1l-70.1-52.1l52.1-70.1L2940.4,2915.7z
		 M2800,2811.5l-52.1,70.1l-70.1-52.1l52.1-70.1L2800,2811.5z M2659.7,2707.3l-52.1,70.1l-70.1-52.1l52.1-70.1L2659.7,2707.3z
		 M2519.3,2603.1l-52.1,70.1l-70.1-52.1l52.1-70.1L2519.3,2603.1z M2379,2498.9l-52.1,70.1l-70.1-52.1l52.1-70.1L2379,2498.9z
		 M2238.6,2394.7l-52.1,70.1l-70.1-52.1l52.1-70.1L2238.6,2394.7z M2098.2,2290.5l-52.1,70.1l-70.1-52.1l52.1-70.1L2098.2,2290.5z
		 M1958,2186.3l-52.1,70.1l-70.1-52.1l52.1-70.1L1958,2186.3z M1858.8,955.4l-52.1-70.2l70.2-52.1l52.1,70.2L1858.8,955.4z
		 M1999.2,851.3l-52.1-70.2l70.2-52.1l52.1,70.2L1999.2,851.3z M2139.5,747.2l-52.1-70.2l70.2-52.1l52.1,70.2L2139.5,747.2z
		 M2279.9,643.1l-52.1-70.2l70.2-52.1l52.1,70.2L2279.9,643.1z M2420.2,539l-52.1-70.2l70.2-52.1l52.1,70.2L2420.2,539z
		 M2560.6,434.9l-52.1-70.2l70.2-52.1l52.1,70.2L2560.6,434.9z M2701,330.8l-52.1-70.2l70.1-52.1l52.1,70.2L2701,330.8z
		 M2841.3,226.8l-52.1-70.2l70.1-52.1l52.1,70.2L2841.3,226.8z M1516,1531.6c0.5,2.4,0.9,4.8,1.1,7.3l397,294.8l393.4-292.2
		l-402.4-298.8l-389.1,289L1516,1531.6z M1433.3,1585.2H698.2l775.3,575.7l367.5-273l-407.6-302.8H1433.3z M552,1585.2H148
		c-24.1,0-43.7-19.6-43.7-43.7c0-24.1,19.6-43.7,43.7-43.7h404l894.7-664.4c15.1-11.7,36.6-12.5,52.6-0.5l405.7,301.4l1344.8-998.8
		c15.1-11.7,36.6-12.5,52.6-0.5L4648,1134.2l405.7-301.4c16.1-11.9,37.6-11.1,52.6,0.5l894.7,664.4h404c24.1,0,43.7,19.6,43.7,43.7
		c0,24.1-19.6,43.7-43.7,43.7h-404l-895.4,665c-16.1,11.9-37.6,11.1-52.6-0.5l-414-307.4l-1335.8,992.1
		c-15.1,11.7-36.6,12.5-52.6,0.5l-1336.6-992.7l-414,307.4c-15.1,11.7-36.6,12.5-52.6,0.5l-895.4-665H552z M698.2,1497.8h717.2
		l416.7-309.4l-358.6-266.3L698.2,1497.8z M3623.5,52.5l-52.1,70.2l-70.1-52.1l52.1-70.2L3623.5,52.5z M3665.1,2986.1L3613,2916
		l70.1-52.1l52.1,70.1L3665.1,2986.1z M3805.5,2881.9l-52.1-70.1l70.1-52.1l52.1,70.1L3805.5,2881.9z M3945.8,2777.7l-52.1-70.1
		l70.1-52.1l52.1,70.1L3945.8,2777.7z M4086.2,2673.5l-52.1-70.1l70.1-52.1l52.1,70.1L4086.2,2673.5z M4226.5,2569.3l-52.1-70.1
		l70.1-52.1l52.1,70.1L4226.5,2569.3z M4366.9,2465.1l-52.1-70.1l70.1-52.1l52.1,70.1L4366.9,2465.1z M4507.2,2360.9l-52.1-70.1
		l70.1-52.1l52.1,70.1L4507.2,2360.9z M4647.5,2256.7l-52.1-70.1l70.1-52.1l52.1,70.1L4647.5,2256.7z M4746.6,885.5l-52.1,70.2
		l-70.2-52.1l52.1-70.2L4746.6,885.5z M4606.2,781.4l-52.1,70.2l-70.2-52.1l52.1-70.2L4606.2,781.4z M4465.8,677.3l-52.1,70.2
		l-70.2-52.1l52.1-70.2L4465.8,677.3z M4325.5,573.2l-52.1,70.2l-70.2-52.1l52.1-70.2L4325.5,573.2z M4185.1,469.1l-52.1,70.2
		l-70.2-52.1l52.1-70.2L4185.1,469.1z M4044.8,365l-52.1,70.2l-70.2-52.1l52.1-70.2L4044.8,365z M3904.4,260.9l-52.1,70.2
		l-70.1-52.1l52.1-70.2L3904.4,260.9z M3764.1,156.8l-52.1,70.2l-70.1-52.1l52.1-70.2L3764.1,156.8z M5036.3,1539.1
		c0.1-2.5,0.5-4.9,1.1-7.3l-389.1-289L4246,1541.6l393.4,292.2l397-294.8L5036.3,1539.1z M5138,1498h717.2l-775.3-575.7
		l-358.6,266.3L5138,1498z M5855.2,1585.4h-735.1l-407.6,302.8l367.5,273l775.3-575.7H5855.2z"/>
</g>
<text transform="matrix(1 0 0 1 0 4771.3481)" style="font-family:'HelveticaNeue-Bold'; font-size:0.5461px;">Created by Olena Panasovska</text>
<text transform="matrix(1 0 0 1 0 4771.894)" style="font-family:'HelveticaNeue-Bold'; font-size:0.5461px;">from the Noun Project</text>
</svg>
